<svg width="157" height="37" viewBox="0 0 157 37" fill="none" xmlns="http://www.w3.org/2000/svg">
<line x1="122.18" y1="7" x2="156.18" y2="7" stroke="#C8392B" stroke-width="4"/>
<line x1="122.18" y1="28" x2="156.18" y2="28" stroke="#E07B39" stroke-width="4"/>
<line x1="122.18" y1="14" x2="156.18" y2="14" stroke="#2E9E6B" stroke-width="4"/>
<line x1="122.18" y1="21" x2="156.18" y2="21" stroke="#3AABA8" stroke-width="4"/>
<g filter="url(#filter0_d_13_401)">
<path d="M12.2201 11.1C13.3001 11.1 14.2867 11.1933 15.1801 11.38C16.0734 11.5533 16.8201 11.7533 17.4201 11.98C18.0334 12.2067 18.4267 12.3933 18.6001 12.54L16.6201 16.12C16.3667 15.9333 15.8934 15.6933 15.2001 15.4C14.5201 15.1067 13.7601 14.96 12.9201 14.96C12.2801 14.96 11.7401 15.06 11.3001 15.26C10.8601 15.4467 10.6401 15.7467 10.6401 16.16C10.6401 16.5733 10.8801 16.9067 11.3601 17.16C11.8534 17.4 12.5601 17.6133 13.4801 17.8C14.2801 17.96 15.0934 18.2133 15.9201 18.56C16.7467 18.9067 17.4334 19.42 17.9801 20.1C18.5401 20.7667 18.8201 21.66 18.8201 22.78C18.8201 23.9267 18.5734 24.8733 18.0801 25.62C17.5867 26.3667 16.9334 26.9467 16.1201 27.36C15.3067 27.7733 14.4267 28.06 13.4801 28.22C12.5334 28.3933 11.6134 28.48 10.7201 28.48C9.46672 28.48 8.37339 28.3667 7.44005 28.14C6.52005 27.9133 5.77339 27.6533 5.20005 27.36C4.62672 27.0667 4.22672 26.8333 4.00005 26.66L5.96005 22.66C6.30672 22.9533 6.87339 23.2867 7.66005 23.66C8.44672 24.02 9.28005 24.2 10.1601 24.2C11.0134 24.2 11.6734 24.0733 12.1401 23.82C12.6067 23.5667 12.8401 23.2333 12.8401 22.82C12.8401 22.4867 12.7267 22.22 12.5001 22.02C12.2734 21.82 11.9534 21.6467 11.5401 21.5C11.1267 21.3533 10.6267 21.22 10.0401 21.1C9.50672 20.9933 8.94005 20.8267 8.34005 20.6C7.74005 20.3733 7.17339 20.0667 6.64005 19.68C6.10672 19.28 5.67339 18.78 5.34005 18.18C5.00672 17.58 4.84005 16.8533 4.84005 16C4.84005 14.9067 5.19339 14 5.90005 13.28C6.60672 12.56 7.52005 12.02 8.64005 11.66C9.76005 11.2867 10.9534 11.1 12.2201 11.1ZM33.2476 11.58H40.1276L32.3876 19.42L40.9276 28H33.8876L27.5476 21.4V28H21.4676V0.479999H27.5476V17.3L33.2476 11.58ZM54.5141 28V25.34C54.3941 25.6067 54.0874 25.9933 53.5941 26.5C53.1141 27.0067 52.4741 27.4667 51.6741 27.88C50.8741 28.28 49.9408 28.48 48.8741 28.48C47.2741 28.48 45.8741 28.0933 44.6741 27.32C43.4741 26.5333 42.5408 25.4867 41.8741 24.18C41.2074 22.86 40.8741 21.4 40.8741 19.8C40.8741 18.2 41.2074 16.7467 41.8741 15.44C42.5408 14.12 43.4741 13.0667 44.6741 12.28C45.8741 11.4933 47.2741 11.1 48.8741 11.1C49.9008 11.1 50.8008 11.2667 51.5741 11.6C52.3474 11.92 52.9741 12.3067 53.4541 12.76C53.9341 13.2 54.2675 13.6067 54.4541 13.98V11.58H60.4941V28H54.5141ZM46.8341 19.8C46.8341 20.5467 47.0074 21.22 47.3541 21.82C47.7008 22.4067 48.1608 22.8667 48.7341 23.2C49.3208 23.5333 49.9674 23.7 50.6741 23.7C51.4075 23.7 52.0541 23.5333 52.6141 23.2C53.1741 22.8667 53.6141 22.4067 53.9341 21.82C54.2674 21.22 54.4341 20.5467 54.4341 19.8C54.4341 19.0533 54.2674 18.3867 53.9341 17.8C53.6141 17.2 53.1741 16.7333 52.6141 16.4C52.0541 16.0533 51.4075 15.88 50.6741 15.88C49.9674 15.88 49.3208 16.0533 48.7341 16.4C48.1608 16.7333 47.7008 17.2 47.3541 17.8C47.0074 18.3867 46.8341 19.0533 46.8341 19.8ZM70.1122 19.18C70.1122 20.4867 70.3589 21.5333 70.8522 22.32C71.3456 23.0933 72.1722 23.48 73.3322 23.48C74.5189 23.48 75.3522 23.0933 75.8322 22.32C76.3256 21.5333 76.5722 20.4867 76.5722 19.18V11.58H82.5722V19.82C82.5722 21.58 82.2056 23.1133 81.4722 24.42C80.7522 25.7133 79.7056 26.7133 78.3322 27.42C76.9589 28.1267 75.2922 28.48 73.3322 28.48C71.3856 28.48 69.7256 28.1267 68.3522 27.42C66.9789 26.7133 65.9322 25.7133 65.2122 24.42C64.4922 23.1133 64.1322 21.58 64.1322 19.82V11.58H70.1122V19.18ZM84.7101 11.58H87.5101V4.84H93.5301V11.58H97.2101V16.58H93.5301V21.16C93.5301 21.84 93.6301 22.3933 93.8301 22.82C94.0301 23.2333 94.3967 23.44 94.9301 23.44C95.2901 23.44 95.5967 23.36 95.8501 23.2C96.1034 23.04 96.2567 22.9333 96.3101 22.88L98.3901 27.2C98.2967 27.28 98.0034 27.4267 97.5101 27.64C97.0301 27.8533 96.4167 28.0467 95.6701 28.22C94.9234 28.3933 94.0901 28.48 93.1701 28.48C91.5301 28.48 90.1767 28.02 89.1101 27.1C88.0434 26.1667 87.5101 24.7333 87.5101 22.8V16.58H84.7101V11.58ZM109.001 28.48C107.201 28.48 105.601 28.1133 104.201 27.38C102.815 26.6333 101.721 25.6133 100.921 24.32C100.135 23.0133 99.7413 21.52 99.7413 19.84C99.7413 18.16 100.135 16.6667 100.921 15.36C101.721 14.04 102.815 13 104.201 12.24C105.601 11.48 107.201 11.1 109.001 11.1C110.801 11.1 112.388 11.48 113.761 12.24C115.135 13 116.208 14.04 116.981 15.36C117.755 16.6667 118.141 18.16 118.141 19.84C118.141 21.52 117.755 23.0133 116.981 24.32C116.208 25.6133 115.135 26.6333 113.761 27.38C112.388 28.1133 110.801 28.48 109.001 28.48ZM109.001 23.48C109.695 23.48 110.295 23.3267 110.801 23.02C111.308 22.7133 111.701 22.28 111.981 21.72C112.261 21.16 112.401 20.5267 112.401 19.82C112.401 19.1 112.261 18.46 111.981 17.9C111.701 17.34 111.308 16.9 110.801 16.58C110.295 16.26 109.695 16.1 109.001 16.1C108.308 16.1 107.701 16.26 107.181 16.58C106.675 16.9 106.275 17.34 105.981 17.9C105.701 18.46 105.561 19.1 105.561 19.82C105.561 20.5267 105.701 21.16 105.981 21.72C106.275 22.28 106.675 22.7133 107.181 23.02C107.701 23.3267 108.308 23.48 109.001 23.48Z" fill="#3D3A36"/>
</g>
<defs>
<filter id="filter0_d_13_401" x="0" y="0.47998" width="122.141" height="36" filterUnits="userSpaceOnUse" color-interpolation-filters="sRGB">
<feFlood flood-opacity="0" result="BackgroundImageFix"/>
<feColorMatrix in="SourceAlpha" type="matrix" values="0 0 0 0 0 0 0 0 0 0 0 0 0 0 0 0 0 0 127 0" result="hardAlpha"/>
<feOffset dy="4"/>
<feGaussianBlur stdDeviation="2"/>
<feComposite in2="hardAlpha" operator="out"/>
<feColorMatrix type="matrix" values="0 0 0 0 0 0 0 0 0 0 0 0 0 0 0 0 0 0 0.25 0"/>
<feBlend mode="normal" in2="BackgroundImageFix" result="effect1_dropShadow_13_401"/>
<feBlend mode="normal" in="SourceGraphic" in2="effect1_dropShadow_13_401" result="shape"/>
</filter>
</defs>
</svg>
